.
..............................Site Info...........................

 -   http://www.scenetime.com  *_*   

SceneTime is going to Close sign up on march/1, hurry up! get in before the doors are closed.

     We care to share . Join us on  http://www.scenetime.com 

    Be the first to get new release at  http://www.scenetime.com

        Seed back for speed


...................................NFO:.................................................








































          
          
              
              
                    
                    
                    
                    
Resurrecting.The.Champ.2007.DVDRiP.AC3-5.1.x264-SiC

Poster:
[img]http://img851.imageshack.us/img851/9462/resurrdvd.png[/img]

IMDB Link: 
http://www.imdb.com/title/tt0416185

Description:
Up-and-coming sports reporter rescues a homeless man ("Champ") only to discover that he is, in fact, a boxing legend believed to have passed away. What begins as an opportunity to resurrect Champ's story and escape the shadow of his father's success becomes a personal journey as the ambitious reporter reexamines his own life and his relationship with his family.

Drama | Sports Film

General:
Complete name                            : Resurrecting.The.Champ.2007.DVDRiP.AC3-5.1.x264-SiC.mkv
Format                                   : Matroska
Format version                           : Version 2
File size                                : 2.00 GiB
Duration                                 : 1h 52mn
Overall bit rate                         : 2 553 Kbps
Encoded date                             : UTC 2012-02-28 05:08:24
Writing application                      : mkvmerge v5.2.1 ('A Far Off Place') built on Jan  2 2012 23:21:10
Writing library                          : libebml v1.2.3 + libmatroska v1.3.0

Video
ID                                       : 1
Format                                   : AVC
Format/Info                              : Advanced Video Codec
Format profile                           : High@L4.1
Format settings, CABAC                   : Yes
Format settings, ReFrames                : 3 frames
Codec ID                                 : V_MPEG4/ISO/AVC
Duration                                 : 1h 52mn
Bit rate                                 : 2 168 Kbps
Width                                    : 720 pixels
Height                                   : 304 pixels
Display aspect ratio                     : 2.35:1
Frame rate                               : 23.976 fps
Color space                              : YUV
Chroma subsampling                       : 4:2:0
Bit depth                                : 8 bits
Scan type                                : Progressive
Bits/(Pixel*Frame)                       : 0.413
Stream size                              : 1.66 GiB (83%)
Title                                    : Resurrecting.The.Champ.2007.DVDRiP.AC3-5.1.x264-SiC
Writing library                          : x264 core 120 r2164 da19765
Language                                 : English
Default                                  : Yes
Forced                                   : No

Audio
ID                                       : 2
Format                                   : AC-3
Format/Info                              : Audio Coding 3
Mode extension                           : CM (complete main)
Codec ID                                 : A_AC3
Duration                                 : 1h 52mn
Bit rate mode                            : Constant
Bit rate                                 : 384 Kbps
Channel(s)                               : 6 channels
Channel positions                        : Front: L C R, Side: L R, LFE
Sampling rate                            : 48.0 KHz
Bit depth                                : 16 bits
Compression mode                         : Lossy
Stream size                              : 308 MiB (15%)
Language                                 : English
Default                                  : Yes
Forced                                   : No

Screenshots:
[IMG]http://img31.imageshack.us/img31/9786/resurrectingthechamp200t.jpg[/IMG]
[IMG]http://img252.imageshack.us/img252/1280/resurrectingthechamp200.jpg[/IMG]
[IMG]http://img839.imageshack.us/img839/1280/resurrectingthechamp200.jpg[/IMG]
[IMG]http://img705.imageshack.us/img705/1280/resurrectingthechamp200.jpg[/IMG]
[IMG]http://img205.imageshack.us/img205/1280/resurrectingthechamp200.jpg[/IMG]
[IMG]http://img96.imageshack.us/img96/1280/resurrectingthechamp200.jpg[/IMG]
[IMG]http://img837.imageshack.us/img837/1280/resurrectingthechamp200.jpg[/IMG]
[IMG]http://img40.imageshack.us/img40/6236/resurrectingthechamp200y.jpg[/IMG]

Note:  Normal stuff applied came together real nice.  :) Great Movie as well :D

Source:  Ours

Enjoy!

Respects to T00NG0D, ELEKTRI4KA, PA, YeFsTe, MrRep and everyone in the struggle...